<svg width="40" height="34" viewBox="0 0 40 34" fill="none" xmlns="http://www.w3.org/2000/svg">
<g filter="url(#filter0_d_619_21222)">
<path d="M5 25V17.9326C5 15.9694 5.36835 13.9856 6.10505 11.9811C6.86166 9.95597 7.83728 8.07547 9.03193 6.33962C10.2465 4.58311 11.5009 3.13657 12.7951 2L19.0072 5.53369C17.932 7.3522 17.0759 9.25337 16.4387 11.2372C15.8016 13.2004 15.493 15.4218 15.5129 17.9016V25H5ZM19.9928 25V17.9326C19.9928 15.9694 20.3611 13.9856 21.0978 11.9811C21.8544 9.95597 22.8301 8.07547 24.0247 6.33962C25.2393 4.58311 26.4937 3.13657 27.7878 2L34 5.53369C32.9248 7.3522 32.0687 9.25337 31.4315 11.2372C30.7944 13.2004 30.4858 15.4218 30.5057 17.9016V25H19.9928Z" fill="#0022CC"/>
<path d="M4.5 25V25.5H5H15.5129H16.0129V25V17.9016H16.0129L16.0129 17.8976C15.9933 15.4611 16.2967 13.2945 16.9143 11.3915L16.9148 11.3901C17.5404 9.44221 18.3811 7.57507 19.4376 5.78816L19.6964 5.35048L19.2544 5.09909L13.0423 1.56539L12.7327 1.38931L12.4651 1.62431C11.1339 2.79341 9.85318 4.27276 8.62067 6.05525L8.62004 6.05615C7.4016 7.82658 6.40722 9.74365 5.63667 11.8061L5.63666 11.8061L5.63574 11.8086C4.88052 13.8635 4.5 15.9056 4.5 17.9326V25ZM19.4928 25V25.5H19.9928H30.5057H31.0057V25L31.0057 17.9016L31.0057 17.8976C30.9861 15.4611 31.2895 13.2945 31.9071 11.3915L31.9076 11.3901C32.5332 9.44221 33.3739 7.57507 34.4304 5.78816L34.6892 5.35048L34.2472 5.09909L28.0351 1.56539L27.7255 1.38931L27.4579 1.62431C26.1267 2.79341 24.846 4.27276 23.6135 6.05525L23.6128 6.05615C22.3944 7.82658 21.4 9.74365 20.6295 11.8061L20.6285 11.8086C19.8733 13.8635 19.4928 15.9056 19.4928 17.9326V25Z" stroke="black"/>
</g>
<defs>
<filter id="filter0_d_619_21222" x="0" y="0.778564" width="39.3783" height="33.2214" filterUnits="userSpaceOnUse" color-interpolation-filters="sRGB">
<feFlood flood-opacity="0" result="BackgroundImageFix"/>
<feColorMatrix in="SourceAlpha" type="matrix" values="0 0 0 0 0 0 0 0 0 0 0 0 0 0 0 0 0 0 127 0" result="hardAlpha"/>
<feOffset dy="4"/>
<feGaussianBlur stdDeviation="2"/>
<feComposite in2="hardAlpha" operator="out"/>
<feColorMatrix type="matrix" values="0 0 0 0 0 0 0 0 0 0 0 0 0 0 0 0 0 0 0.25 0"/>
<feBlend mode="normal" in2="BackgroundImageFix" result="effect1_dropShadow_619_21222"/>
<feBlend mode="normal" in="SourceGraphic" in2="effect1_dropShadow_619_21222" result="shape"/>
</filter>
</defs>
</svg>
