<svg width="32" height="32" viewBox="0 0 32 32" fill="none" xmlns="http://www.w3.org/2000/svg">
<g clip-path="url(#clip0_998_21716)">
<path d="M4.84741 15.0575C4.59745 15.3076 4.45703 15.6466 4.45703 16.0002C4.45703 16.3537 4.59745 16.6928 4.84741 16.9429L12.3901 24.4855C12.5131 24.6129 12.6602 24.7144 12.8229 24.7843C12.9855 24.8542 13.1605 24.891 13.3375 24.8925C13.5146 24.8941 13.6902 24.8603 13.854 24.7933C14.0179 24.7262 14.1667 24.6272 14.2919 24.5021C14.4171 24.3769 14.5161 24.228 14.5832 24.0641C14.6502 23.9003 14.684 23.7247 14.6824 23.5477C14.6809 23.3706 14.6441 23.1957 14.5742 23.033C14.5043 22.8703 14.4028 22.7232 14.2754 22.6002L9.00874 17.3335L26.6661 17.3335C27.0197 17.3335 27.3588 17.193 27.6089 16.943C27.8589 16.693 27.9994 16.3538 27.9994 16.0002C27.9994 15.6466 27.8589 15.3074 27.6089 15.0574C27.3588 14.8073 27.0197 14.6669 26.6661 14.6669L9.00874 14.6669L14.2754 9.40019C14.5183 9.14872 14.6527 8.81192 14.6496 8.46232C14.6466 8.11273 14.5064 7.77831 14.2592 7.5311C14.012 7.28389 13.6775 7.14366 13.3279 7.14062C12.9783 7.13759 12.6415 7.27198 12.3901 7.51486L4.84741 15.0575Z" fill="black"/>
</g>
<defs>
<clipPath id="clip0_998_21716">
<rect width="32" height="32" fill="white" transform="translate(0 32) rotate(-90)"/>
</clipPath>
</defs>
</svg>
