<svg width="50" height="50" viewBox="0 0 50 50" fill="none" xmlns="http://www.w3.org/2000/svg">
<rect width="50" height="50" rx="25" fill="#0022CC"/>
<path d="M12.056 20.504H13.064V28.064H16.952V29H12.056V20.504ZM17.564 26.192C17.564 25.752 17.64 25.352 17.792 24.992C17.944 24.632 18.152 24.324 18.416 24.068C18.68 23.804 18.996 23.6 19.364 23.456C19.732 23.312 20.132 23.24 20.564 23.24C20.996 23.24 21.396 23.312 21.764 23.456C22.132 23.6 22.448 23.804 22.712 24.068C22.976 24.324 23.184 24.632 23.336 24.992C23.488 25.352 23.564 25.752 23.564 26.192C23.564 26.632 23.488 27.032 23.336 27.392C23.184 27.752 22.976 28.064 22.712 28.328C22.448 28.584 22.132 28.784 21.764 28.928C21.396 29.072 20.996 29.144 20.564 29.144C20.132 29.144 19.732 29.072 19.364 28.928C18.996 28.784 18.68 28.584 18.416 28.328C18.152 28.064 17.944 27.752 17.792 27.392C17.64 27.032 17.564 26.632 17.564 26.192ZM18.572 26.192C18.572 26.488 18.616 26.764 18.704 27.02C18.8 27.268 18.936 27.488 19.112 27.68C19.288 27.864 19.496 28.012 19.736 28.124C19.984 28.228 20.26 28.28 20.564 28.28C20.868 28.28 21.14 28.228 21.38 28.124C21.628 28.012 21.84 27.864 22.016 27.68C22.192 27.488 22.324 27.268 22.412 27.02C22.508 26.764 22.556 26.488 22.556 26.192C22.556 25.896 22.508 25.624 22.412 25.376C22.324 25.12 22.192 24.9 22.016 24.716C21.84 24.524 21.628 24.376 21.38 24.272C21.14 24.16 20.868 24.104 20.564 24.104C20.26 24.104 19.984 24.16 19.736 24.272C19.496 24.376 19.288 24.524 19.112 24.716C18.936 24.9 18.8 25.12 18.704 25.376C18.616 25.624 18.572 25.896 18.572 26.192ZM30.617 28.748C30.617 29.772 30.353 30.548 29.825 31.076C29.305 31.612 28.549 31.88 27.557 31.88C27.005 31.88 26.505 31.8 26.057 31.64C25.617 31.48 25.197 31.204 24.797 30.812L25.469 30.044C25.765 30.364 26.077 30.604 26.405 30.764C26.741 30.932 27.125 31.016 27.557 31.016C27.973 31.016 28.317 30.952 28.589 30.824C28.869 30.704 29.089 30.536 29.249 30.32C29.409 30.112 29.521 29.872 29.585 29.6C29.649 29.328 29.681 29.044 29.681 28.748V28.028H29.657C29.433 28.388 29.141 28.652 28.781 28.82C28.421 28.988 28.053 29.072 27.677 29.072C27.237 29.072 26.833 29 26.465 28.856C26.097 28.712 25.781 28.512 25.517 28.256C25.253 28 25.049 27.696 24.905 27.344C24.761 26.992 24.689 26.608 24.689 26.192C24.689 25.736 24.761 25.324 24.905 24.956C25.049 24.588 25.249 24.28 25.505 24.032C25.769 23.776 26.085 23.58 26.453 23.444C26.821 23.308 27.229 23.24 27.677 23.24C27.869 23.24 28.061 23.264 28.253 23.312C28.445 23.352 28.629 23.42 28.805 23.516C28.989 23.604 29.153 23.72 29.297 23.864C29.441 24 29.561 24.16 29.657 24.344H29.681V23.384H30.617V28.748ZM25.697 26.192C25.697 26.48 25.749 26.748 25.853 26.996C25.957 27.236 26.097 27.448 26.273 27.632C26.457 27.808 26.669 27.948 26.909 28.052C27.149 28.156 27.405 28.208 27.677 28.208C27.997 28.208 28.281 28.152 28.529 28.04C28.777 27.928 28.985 27.78 29.153 27.596C29.329 27.404 29.461 27.188 29.549 26.948C29.637 26.7 29.681 26.44 29.681 26.168C29.681 25.864 29.633 25.588 29.537 25.34C29.441 25.084 29.305 24.864 29.129 24.68C28.953 24.496 28.741 24.356 28.493 24.26C28.245 24.156 27.973 24.104 27.677 24.104C27.381 24.104 27.109 24.16 26.861 24.272C26.621 24.376 26.413 24.524 26.237 24.716C26.069 24.9 25.937 25.12 25.841 25.376C25.745 25.624 25.697 25.896 25.697 26.192ZM32.0249 26.192C32.0249 25.752 32.1009 25.352 32.2529 24.992C32.4049 24.632 32.6129 24.324 32.8769 24.068C33.1409 23.804 33.4569 23.6 33.8249 23.456C34.1929 23.312 34.5929 23.24 35.0249 23.24C35.4569 23.24 35.8569 23.312 36.2249 23.456C36.5929 23.6 36.9089 23.804 37.1729 24.068C37.4369 24.324 37.6449 24.632 37.7969 24.992C37.9489 25.352 38.0249 25.752 38.0249 26.192C38.0249 26.632 37.9489 27.032 37.7969 27.392C37.6449 27.752 37.4369 28.064 37.1729 28.328C36.9089 28.584 36.5929 28.784 36.2249 28.928C35.8569 29.072 35.4569 29.144 35.0249 29.144C34.5929 29.144 34.1929 29.072 33.8249 28.928C33.4569 28.784 33.1409 28.584 32.8769 28.328C32.6129 28.064 32.4049 27.752 32.2529 27.392C32.1009 27.032 32.0249 26.632 32.0249 26.192ZM33.0329 26.192C33.0329 26.488 33.0769 26.764 33.1649 27.02C33.2609 27.268 33.3969 27.488 33.5729 27.68C33.7489 27.864 33.9569 28.012 34.1969 28.124C34.4449 28.228 34.7209 28.28 35.0249 28.28C35.3289 28.28 35.6009 28.228 35.8409 28.124C36.0889 28.012 36.3009 27.864 36.4769 27.68C36.6529 27.488 36.7849 27.268 36.8729 27.02C36.9689 26.764 37.0169 26.488 37.0169 26.192C37.0169 25.896 36.9689 25.624 36.8729 25.376C36.7849 25.12 36.6529 24.9 36.4769 24.716C36.3009 24.524 36.0889 24.376 35.8409 24.272C35.6009 24.16 35.3289 24.104 35.0249 24.104C34.7209 24.104 34.4449 24.16 34.1969 24.272C33.9569 24.376 33.7489 24.524 33.5729 24.716C33.3969 24.9 33.2609 25.12 33.1649 25.376C33.0769 25.624 33.0329 25.896 33.0329 26.192Z" fill="white"/>
</svg>
