<svg width="24" height="24" viewBox="0 0 24 24" fill="none" xmlns="http://www.w3.org/2000/svg">
<path d="M11.999 0C12.1979 0 12.3887 0.0790175 12.5293 0.21967C12.67 0.360322 12.749 0.551088 12.749 0.75V2.246C12.749 2.44491 12.67 2.63568 12.5293 2.77633C12.3887 2.91698 12.1979 2.996 11.999 2.996C11.8001 2.996 11.6093 2.91698 11.4687 2.77633C11.328 2.63568 11.249 2.44491 11.249 2.246V0.75C11.249 0.551088 11.328 0.360322 11.4687 0.21967C11.6093 0.0790175 11.8001 0 11.999 0ZM17.999 12C17.999 12.7879 17.8438 13.5681 17.5423 14.2961C17.2407 15.0241 16.7988 15.6855 16.2416 16.2426C15.6845 16.7998 15.0231 17.2417 14.2951 17.5433C13.5671 17.8448 12.7869 18 11.999 18C11.2111 18 10.4309 17.8448 9.7029 17.5433C8.97495 17.2417 8.31351 16.7998 7.75636 16.2426C7.19921 15.6855 6.75725 15.0241 6.45572 14.2961C6.15419 13.5681 5.999 12.7879 5.999 12C5.999 10.4087 6.63114 8.88258 7.75636 7.75736C8.88158 6.63214 10.4077 6 11.999 6C13.5903 6 15.1164 6.63214 16.2416 7.75736C17.3669 8.88258 17.999 10.4087 17.999 12ZM23.249 12.75C23.4479 12.75 23.6387 12.671 23.7793 12.5303C23.92 12.3897 23.999 12.1989 23.999 12C23.999 11.8011 23.92 11.6103 23.7793 11.4697C23.6387 11.329 23.4479 11.25 23.249 11.25H21.753C21.5541 11.25 21.3633 11.329 21.2227 11.4697C21.082 11.6103 21.003 11.8011 21.003 12C21.003 12.1989 21.082 12.3897 21.2227 12.5303C21.3633 12.671 21.5541 12.75 21.753 12.75H23.249ZM11.999 21.004C12.1979 21.004 12.3887 21.083 12.5293 21.2237C12.67 21.3643 12.749 21.5551 12.749 21.754V23.25C12.749 23.4489 12.67 23.6397 12.5293 23.7803C12.3887 23.921 12.1979 24 11.999 24C11.8001 24 11.6093 23.921 11.4687 23.7803C11.328 23.6397 11.249 23.4489 11.249 23.25V21.754C11.249 21.5551 11.328 21.3643 11.4687 21.2237C11.6093 21.083 11.8001 21.004 11.999 21.004ZM2.249 12.75C2.44791 12.75 2.63868 12.671 2.77933 12.5303C2.91998 12.3897 2.999 12.1989 2.999 12C2.999 11.8011 2.91998 11.6103 2.77933 11.4697C2.63868 11.329 2.44791 11.25 2.249 11.25H0.75C0.551088 11.25 0.360322 11.329 0.21967 11.4697C0.0790178 11.6103 0 11.8011 0 12C0 12.1989 0.0790178 12.3897 0.21967 12.5303C0.360322 12.671 0.551088 12.75 0.75 12.75H2.249ZM3.219 3.219C3.35963 3.07855 3.55025 2.99966 3.749 2.99966C3.94775 2.99966 4.13837 3.07855 4.279 3.219L5.779 4.719C5.91148 4.86117 5.9836 5.04922 5.98018 5.24352C5.97675 5.43782 5.89804 5.62321 5.76062 5.76062C5.62321 5.89804 5.43782 5.97675 5.24352 5.98018C5.04922 5.9836 4.86117 5.91148 4.719 5.779L3.219 4.279C3.07855 4.13837 2.99966 3.94775 2.99966 3.749C2.99966 3.55025 3.07855 3.35963 3.219 3.219ZM4.279 20.779C4.13683 20.9115 3.94878 20.9836 3.75448 20.9802C3.56018 20.9767 3.37479 20.898 3.23738 20.7606C3.09997 20.6232 3.02125 20.4378 3.01783 20.2435C3.0144 20.0492 3.08652 19.8612 3.219 19.719L4.719 18.219C4.86117 18.0865 5.04922 18.0144 5.24352 18.0178C5.43782 18.0213 5.62321 18.1 5.76062 18.2374C5.89804 18.3748 5.97675 18.5602 5.98018 18.7545C5.9836 18.9488 5.91148 19.1368 5.779 19.279L4.279 20.779ZM20.779 3.219C20.6384 3.07855 20.4478 2.99966 20.249 2.99966C20.0502 2.99966 19.8596 3.07855 19.719 3.219L18.219 4.719C18.1453 4.78766 18.0862 4.87046 18.0452 4.96246C18.0042 5.05446 17.9822 5.15377 17.9804 5.25448C17.9786 5.35518 17.9972 5.45521 18.0349 5.5486C18.0726 5.64199 18.1287 5.72682 18.2 5.79804C18.2712 5.86926 18.356 5.9254 18.4494 5.96312C18.5428 6.00084 18.6428 6.01937 18.7435 6.01759C18.8442 6.01581 18.9435 5.99377 19.0355 5.95278C19.1275 5.91179 19.2103 5.85269 19.279 5.779L20.779 4.279C20.9195 4.13837 20.9983 3.94775 20.9983 3.749C20.9983 3.55025 20.9195 3.35963 20.779 3.219ZM19.719 20.78C19.8612 20.9125 20.0492 20.9846 20.2435 20.9812C20.4378 20.9777 20.6232 20.899 20.7606 20.7616C20.898 20.6242 20.9767 20.4388 20.9802 20.2445C20.9836 20.0502 20.9115 19.8622 20.779 19.72L19.279 18.22C19.1368 18.0875 18.9488 18.0154 18.7545 18.0188C18.5602 18.0223 18.3748 18.101 18.2374 18.2384C18.1 18.3758 18.0213 18.5612 18.0178 18.7555C18.0144 18.9498 18.0865 19.1378 18.219 19.28L19.719 20.78Z" fill="#0022CC"/>
</svg>
