<svg width="21" height="22" viewBox="0 0 21 22" fill="none" xmlns="http://www.w3.org/2000/svg">
<path d="M12.0955 18.9946L18.3306 12.7705L20.666 15.1059L14.4309 21.33L12.0955 18.9946ZM15.6206 10.0385L12.2056 6.6455C12.0753 6.51788 11.9268 6.41023 11.765 6.32603L10.5312 1.60012C10.452 1.32507 10.2691 1.09158 10.0209 0.948971C9.77277 0.806364 9.47891 0.76582 9.20142 0.835907C8.92393 0.905994 8.68457 1.08122 8.53391 1.32456C8.38324 1.56789 8.33309 1.86027 8.39405 2.13991L9.56176 6.62347L6.995 1.29166C6.74163 0.740857 6.08066 0.531551 5.52985 0.762889C4.97905 1.02728 4.74771 1.68824 5.0121 2.23905L6.87382 6.13876L3.16139 2.45937C2.73176 2.02974 2.02673 2.02974 1.5971 2.45937C1.16747 2.90002 1.17848 3.59403 1.60811 4.02366L5.70611 8.09963L4.93498 8.39707L3.74524 8.87076L1.64116 10.3249C1.64116 10.3249 0.748854 11.4816 0.671741 11.9773C0.583612 12.473 1.54202 14.9627 1.54202 14.9627H1.55303C1.72929 15.3372 2.10384 15.6016 2.54448 15.6016C2.83665 15.6016 3.11685 15.4856 3.32344 15.279C3.53003 15.0724 3.6461 14.7922 3.6461 14.5C3.6461 14.3898 3.61305 14.3017 3.58 14.2026L3.60203 14.1916L2.95208 12.2858L4.30706 11.2062C4.82482 11.2282 5.93745 11.3163 6.47724 11.3494C9.48464 14.0483 6.64248 15.1059 6.64248 15.1059L2.8309 16.2736L2.64363 16.4278C2.5306 16.5323 2.44228 16.6607 2.38511 16.8036C2.32794 16.9465 2.30336 17.1004 2.31314 17.254L2.33518 18.4328L9.41855 17.882C9.83716 17.893 10.2337 17.7387 10.5422 17.4413L15.6206 12.3739C16.2045 11.779 16.2265 10.6664 15.6206 10.0385Z" fill="#0022CC"/>
</svg>
