<svg width="25" height="24" viewBox="0 0 25 24" fill="none" xmlns="http://www.w3.org/2000/svg">
<path d="M12.665 0C12.8639 0 13.0547 0.0790175 13.1953 0.21967C13.336 0.360322 13.415 0.551088 13.415 0.75V2.246C13.415 2.44491 13.336 2.63568 13.1953 2.77633C13.0547 2.91698 12.8639 2.996 12.665 2.996C12.4661 2.996 12.2753 2.91698 12.1347 2.77633C11.994 2.63568 11.915 2.44491 11.915 2.246V0.75C11.915 0.551088 11.994 0.360322 12.1347 0.21967C12.2753 0.0790175 12.4661 0 12.665 0ZM18.665 12C18.665 12.7879 18.5098 13.5681 18.2083 14.2961C17.9068 15.0241 17.4648 15.6855 16.9077 16.2426C16.3505 16.7998 15.6891 17.2417 14.9611 17.5433C14.2332 17.8448 13.4529 18 12.665 18C11.8771 18 11.0969 17.8448 10.3689 17.5433C9.64096 17.2417 8.97953 16.7998 8.42238 16.2426C7.86522 15.6855 7.42327 15.0241 7.12174 14.2961C6.82021 13.5681 6.66502 12.7879 6.66502 12C6.66502 10.4087 7.29716 8.88258 8.42238 7.75736C9.54759 6.63214 11.0737 6 12.665 6C14.2563 6 15.7824 6.63214 16.9077 7.75736C18.0329 8.88258 18.665 10.4087 18.665 12ZM23.915 12.75C24.1139 12.75 24.3047 12.671 24.4453 12.5303C24.586 12.3897 24.665 12.1989 24.665 12C24.665 11.8011 24.586 11.6103 24.4453 11.4697C24.3047 11.329 24.1139 11.25 23.915 11.25H22.419C22.2201 11.25 22.0293 11.329 21.8887 11.4697C21.748 11.6103 21.669 11.8011 21.669 12C21.669 12.1989 21.748 12.3897 21.8887 12.5303C22.0293 12.671 22.2201 12.75 22.419 12.75H23.915ZM12.665 21.004C12.8639 21.004 13.0547 21.083 13.1953 21.2237C13.336 21.3643 13.415 21.5551 13.415 21.754V23.25C13.415 23.4489 13.336 23.6397 13.1953 23.7803C13.0547 23.921 12.8639 24 12.665 24C12.4661 24 12.2753 23.921 12.1347 23.7803C11.994 23.6397 11.915 23.4489 11.915 23.25V21.754C11.915 21.5551 11.994 21.3643 12.1347 21.2237C12.2753 21.083 12.4661 21.004 12.665 21.004ZM2.91502 12.75C3.11393 12.75 3.30469 12.671 3.44535 12.5303C3.586 12.3897 3.66502 12.1989 3.66502 12C3.66502 11.8011 3.586 11.6103 3.44535 11.4697C3.30469 11.329 3.11393 11.25 2.91502 11.25H1.41602C1.2171 11.25 1.02634 11.329 0.885686 11.4697C0.745033 11.6103 0.666016 11.8011 0.666016 12C0.666016 12.1989 0.745033 12.3897 0.885686 12.5303C1.02634 12.671 1.2171 12.75 1.41602 12.75H2.91502ZM3.88502 3.219C4.02564 3.07855 4.21626 2.99966 4.41502 2.99966C4.61377 2.99966 4.80439 3.07855 4.94502 3.219L6.44502 4.719C6.5775 4.86117 6.64962 5.04922 6.64619 5.24352C6.64276 5.43782 6.56405 5.62321 6.42664 5.76062C6.28922 5.89804 6.10384 5.97675 5.90954 5.98018C5.71524 5.9836 5.52719 5.91148 5.38502 5.779L3.88502 4.279C3.74457 4.13837 3.66568 3.94775 3.66568 3.749C3.66568 3.55025 3.74457 3.35963 3.88502 3.219ZM4.94502 20.779C4.80284 20.9115 4.61479 20.9836 4.42049 20.9802C4.22619 20.9767 4.04081 20.898 3.90339 20.7606C3.76598 20.6232 3.68727 20.4378 3.68384 20.2435C3.68041 20.0492 3.75254 19.8612 3.88502 19.719L5.38502 18.219C5.52719 18.0865 5.71524 18.0144 5.90954 18.0178C6.10384 18.0213 6.28922 18.1 6.42664 18.2374C6.56405 18.3748 6.64276 18.5602 6.64619 18.7545C6.64962 18.9488 6.5775 19.1368 6.44502 19.279L4.94502 20.779ZM21.445 3.219C21.3044 3.07855 21.1138 2.99966 20.915 2.99966C20.7163 2.99966 20.5256 3.07855 20.385 3.219L18.885 4.719C18.8113 4.78766 18.7522 4.87046 18.7112 4.96246C18.6702 5.05446 18.6482 5.15377 18.6464 5.25448C18.6446 5.35518 18.6632 5.45521 18.7009 5.5486C18.7386 5.64199 18.7948 5.72682 18.866 5.79804C18.9372 5.86926 19.022 5.9254 19.1154 5.96312C19.2088 6.00084 19.3088 6.01937 19.4095 6.01759C19.5102 6.01581 19.6096 5.99377 19.7016 5.95278C19.7936 5.91179 19.8764 5.85269 19.945 5.779L21.445 4.279C21.5855 4.13837 21.6644 3.94775 21.6644 3.749C21.6644 3.55025 21.5855 3.35963 21.445 3.219ZM20.385 20.78C20.5272 20.9125 20.7152 20.9846 20.9095 20.9812C21.1038 20.9777 21.2892 20.899 21.4266 20.7616C21.5641 20.6242 21.6428 20.4388 21.6462 20.2445C21.6496 20.0502 21.5775 19.8622 21.445 19.72L19.945 18.22C19.8028 18.0875 19.6148 18.0154 19.4205 18.0188C19.2262 18.0223 19.0408 18.101 18.9034 18.2384C18.766 18.3758 18.6873 18.5612 18.6838 18.7555C18.6804 18.9498 18.7525 19.1378 18.885 19.28L20.385 20.78Z" fill="#0022CC"/>
</svg>
