<svg width="25" height="24" viewBox="0 0 25 24" fill="none" xmlns="http://www.w3.org/2000/svg">
<path d="M12.333 0C12.5319 0 12.7227 0.0790175 12.8633 0.21967C13.004 0.360322 13.083 0.551088 13.083 0.75V2.246C13.083 2.44491 13.004 2.63568 12.8633 2.77633C12.7227 2.91698 12.5319 2.996 12.333 2.996C12.1341 2.996 11.9433 2.91698 11.8027 2.77633C11.662 2.63568 11.583 2.44491 11.583 2.246V0.75C11.583 0.551088 11.662 0.360322 11.8027 0.21967C11.9433 0.0790175 12.1341 0 12.333 0ZM18.333 12C18.333 12.7879 18.1778 13.5681 17.8763 14.2961C17.5747 15.0241 17.1328 15.6855 16.5756 16.2426C16.0185 16.7998 15.357 17.2417 14.6291 17.5433C13.9011 17.8448 13.1209 18 12.333 18C11.5451 18 10.7648 17.8448 10.0369 17.5433C9.30893 17.2417 8.6475 16.7998 8.09034 16.2426C7.53319 15.6855 7.09124 15.0241 6.78971 14.2961C6.48818 13.5681 6.33298 12.7879 6.33298 12C6.33298 10.4087 6.96513 8.88258 8.09034 7.75736C9.21556 6.63214 10.7417 6 12.333 6C13.9243 6 15.4504 6.63214 16.5756 7.75736C17.7008 8.88258 18.333 10.4087 18.333 12ZM23.583 12.75C23.7819 12.75 23.9727 12.671 24.1133 12.5303C24.254 12.3897 24.333 12.1989 24.333 12C24.333 11.8011 24.254 11.6103 24.1133 11.4697C23.9727 11.329 23.7819 11.25 23.583 11.25H22.087C21.8881 11.25 21.6973 11.329 21.5567 11.4697C21.416 11.6103 21.337 11.8011 21.337 12C21.337 12.1989 21.416 12.3897 21.5567 12.5303C21.6973 12.671 21.8881 12.75 22.087 12.75H23.583ZM12.333 21.004C12.5319 21.004 12.7227 21.083 12.8633 21.2237C13.004 21.3643 13.083 21.5551 13.083 21.754V23.25C13.083 23.4489 13.004 23.6397 12.8633 23.7803C12.7227 23.921 12.5319 24 12.333 24C12.1341 24 11.9433 23.921 11.8027 23.7803C11.662 23.6397 11.583 23.4489 11.583 23.25V21.754C11.583 21.5551 11.662 21.3643 11.8027 21.2237C11.9433 21.083 12.1341 21.004 12.333 21.004ZM2.58298 12.75C2.7819 12.75 2.97266 12.671 3.11331 12.5303C3.25397 12.3897 3.33298 12.1989 3.33298 12C3.33298 11.8011 3.25397 11.6103 3.11331 11.4697C2.97266 11.329 2.7819 11.25 2.58298 11.25H1.08398C0.885072 11.25 0.694307 11.329 0.553654 11.4697C0.413002 11.6103 0.333984 11.8011 0.333984 12C0.333984 12.1989 0.413002 12.3897 0.553654 12.5303C0.694307 12.671 0.885072 12.75 1.08398 12.75H2.58298ZM3.55298 3.219C3.69361 3.07855 3.88423 2.99966 4.08298 2.99966C4.28174 2.99966 4.47236 3.07855 4.61298 3.219L6.11298 4.719C6.24546 4.86117 6.31759 5.04922 6.31416 5.24352C6.31073 5.43782 6.23202 5.62321 6.09461 5.76062C5.95719 5.89804 5.77181 5.97675 5.57751 5.98018C5.38321 5.9836 5.19516 5.91148 5.05298 5.779L3.55298 4.279C3.41253 4.13837 3.33364 3.94775 3.33364 3.749C3.33364 3.55025 3.41253 3.35963 3.55298 3.219ZM4.61298 20.779C4.47081 20.9115 4.28276 20.9836 4.08846 20.9802C3.89416 20.9767 3.70878 20.898 3.57136 20.7606C3.43395 20.6232 3.35524 20.4378 3.35181 20.2435C3.34838 20.0492 3.4205 19.8612 3.55298 19.719L5.05298 18.219C5.19516 18.0865 5.38321 18.0144 5.57751 18.0178C5.77181 18.0213 5.95719 18.1 6.09461 18.2374C6.23202 18.3748 6.31073 18.5602 6.31416 18.7545C6.31759 18.9488 6.24546 19.1368 6.11298 19.279L4.61298 20.779ZM21.113 3.219C20.9724 3.07855 20.7817 2.99966 20.583 2.99966C20.3842 2.99966 20.1936 3.07855 20.053 3.219L18.553 4.719C18.4793 4.78766 18.4202 4.87046 18.3792 4.96246C18.3382 5.05446 18.3162 5.15377 18.3144 5.25448C18.3126 5.35518 18.3311 5.45521 18.3689 5.5486C18.4066 5.64199 18.4627 5.72682 18.5339 5.79804C18.6052 5.86926 18.69 5.9254 18.7834 5.96312C18.8768 6.00084 18.9768 6.01937 19.0775 6.01759C19.1782 6.01581 19.2775 5.99377 19.3695 5.95278C19.4615 5.91179 19.5443 5.85269 19.613 5.779L21.113 4.279C21.2534 4.13837 21.3323 3.94775 21.3323 3.749C21.3323 3.55025 21.2534 3.35963 21.113 3.219ZM20.053 20.78C20.1952 20.9125 20.3832 20.9846 20.5775 20.9812C20.7718 20.9777 20.9572 20.899 21.0946 20.7616C21.232 20.6242 21.3107 20.4388 21.3142 20.2445C21.3176 20.0502 21.2455 19.8622 21.113 19.72L19.613 18.22C19.4708 18.0875 19.2828 18.0154 19.0885 18.0188C18.8942 18.0223 18.7088 18.101 18.5714 18.2384C18.434 18.3758 18.3552 18.5612 18.3518 18.7555C18.3484 18.9498 18.4205 19.1378 18.553 19.28L20.053 20.78Z" fill="#0022CC"/>
</svg>
