<svg width="20" height="22" viewBox="0 0 20 22" fill="none" xmlns="http://www.w3.org/2000/svg">
<path d="M11.4295 18.9946L17.6646 12.7705L20 15.1059L13.7649 21.33L11.4295 18.9946ZM14.9546 10.0385L11.5396 6.6455C11.4093 6.51788 11.2608 6.41023 11.099 6.32603L9.86516 1.60012C9.78602 1.32507 9.60304 1.09158 9.3549 0.948971C9.10676 0.806364 8.81289 0.76582 8.53541 0.835907C8.25792 0.905994 8.01855 1.08122 7.86789 1.32456C7.71723 1.56789 7.66708 1.86027 7.72803 2.13991L8.89574 6.62347L6.32898 1.29166C6.07561 0.740857 5.41465 0.531551 4.86384 0.762889C4.31303 1.02728 4.08169 1.68824 4.34608 2.23905L6.20781 6.13876L2.49537 2.45937C2.06574 2.02974 1.36071 2.02974 0.93108 2.45937C0.501451 2.90002 0.512467 3.59403 0.942096 4.02366L5.0401 8.09963L4.26897 8.39707L3.07923 8.87076L0.975145 10.3249C0.975145 10.3249 0.0828385 11.4816 0.00572557 11.9773C-0.0824035 12.473 0.876 14.9627 0.876 14.9627H0.887016C1.06327 15.3372 1.43782 15.6016 1.87847 15.6016C2.17063 15.6016 2.45083 15.4856 2.65743 15.279C2.86402 15.0724 2.98008 14.7922 2.98008 14.5C2.98008 14.3898 2.94703 14.3017 2.91398 14.2026L2.93602 14.1916L2.28606 12.2858L3.64105 11.2062C4.15881 11.2282 5.27143 11.3163 5.81123 11.3494C8.81863 14.0483 5.97647 15.1059 5.97647 15.1059L2.16489 16.2736L1.97761 16.4278C1.86458 16.5323 1.77627 16.6607 1.7191 16.8036C1.66193 16.9465 1.63734 17.1004 1.64713 17.254L1.66916 18.4328L8.75253 17.882C9.17114 17.893 9.56773 17.7387 9.87618 17.4413L14.9546 12.3739C15.5385 11.779 15.5605 10.6664 14.9546 10.0385Z" fill="#0022CC"/>
</svg>
