<svg width="21" height="22" viewBox="0 0 21 22" fill="none" xmlns="http://www.w3.org/2000/svg">
<path d="M11.7634 18.9946L17.9986 12.7705L20.334 15.1059L14.0989 21.33L11.7634 18.9946ZM15.2886 10.0385L11.8736 6.6455C11.7433 6.51788 11.5948 6.41023 11.433 6.32603L10.1991 1.60012C10.12 1.32507 9.93703 1.09158 9.68888 0.948971C9.44074 0.806364 9.14688 0.76582 8.86939 0.835907C8.5919 0.905994 8.35254 1.08122 8.20187 1.32456C8.05121 1.56789 8.00106 1.86027 8.06202 2.13991L9.22973 6.62347L6.66297 1.29166C6.4096 0.740857 5.74863 0.531551 5.19782 0.762889C4.64702 1.02728 4.41568 1.68824 4.68006 2.23905L6.54179 6.13876L2.82936 2.45937C2.39973 2.02974 1.69469 2.02974 1.26506 2.45937C0.835436 2.90002 0.846452 3.59403 1.27608 4.02366L5.37408 8.09963L4.60295 8.39707L3.41321 8.87076L1.30913 10.3249C1.30913 10.3249 0.416823 11.4816 0.33971 11.9773C0.251581 12.473 1.20998 14.9627 1.20998 14.9627H1.221C1.39726 15.3372 1.77181 15.6016 2.21245 15.6016C2.50462 15.6016 2.78482 15.4856 2.99141 15.279C3.198 15.0724 3.31406 14.7922 3.31406 14.5C3.31406 14.3898 3.28102 14.3017 3.24797 14.2026L3.27 14.1916L2.62005 12.2858L3.97503 11.2062C4.49279 11.2282 5.60542 11.3163 6.14521 11.3494C9.15261 14.0483 6.31045 15.1059 6.31045 15.1059L2.49887 16.2736L2.3116 16.4278C2.19856 16.5323 2.11025 16.6607 2.05308 16.8036C1.99591 16.9465 1.97133 17.1004 1.98111 17.254L2.00315 18.4328L9.08652 17.882C9.50513 17.893 9.90171 17.7387 10.2102 17.4413L15.2886 12.3739C15.8725 11.779 15.8945 10.6664 15.2886 10.0385Z" fill="#0022CC"/>
</svg>
